<?xml version="1.0" encoding="UTF-8"?>
<svg id="Layer_1" xmlns="http://www.w3.org/2000/svg" width="4.823cm" height=".564cm" version="1.1" viewBox="0 0 136.729 16">
  <!-- Generator: Adobe Illustrator 29.1.0, SVG Export Plug-In . SVG Version: 2.1.0 Build 142)  -->
  <defs>
    <style>
      .st0 {
        fill: #fff;
      }
    </style>
  </defs>
  <path class="st0" d="M35.732,15.607c-.277,0-.586-.066-.794-.34L25.936,3.994v11.504h-2.052V1.336c0-.563.49-1.018,1.047-1.018.326,0,.603.092.813.359l8.976,11.254V.474h2.052v14.142c0,.59-.49.991-1.047.991"/>
  <path class="st0" d="M52.716,15.745c-2.054,0-4.198-.409-6.207-1.13l.494-1.623c1.841.563,3.846.974,5.712.974,2.588,0,3.941-.882,3.941-2.121,0-1.13-1.047-1.693-4.663-3.316-3.618-1.623-5.034-2.657-5.034-4.692,0-2.545,2.052-3.585,5.92-3.585,1.61,0,4.079.317,5.502.724l-.326,1.666c-1.564-.359-3.523-.606-5.133-.606-2.73,0-3.846.494-3.846,1.735s.813,1.735,4.642,3.424c4.033,1.785,5.057,2.684,5.057,4.53,0,2.684-2.661,4.017-6.062,4.017"/>
  <path class="st0" d="M68.501.474h2.121v15.024h-2.121V.474Z"/>
  <path class="st0" d="M88.675,8.685h-5.275v5.093h5.275c1.791,0,2.888-1.083,2.888-2.594,0-1.419-1.139-2.506-2.888-2.506M87.644,2.186h-4.244v4.801h4.244c1.702,0,2.94-1.034,2.94-2.476s-1.074-2.325-2.94-2.325M88.691,15.492h-6.338c-.606,0-1.074-.455-1.074-1.018V1.491c0-.54.467-1.018,1.074-1.018h5.249c3.217,0,5.133,1.514,5.133,3.882,0,1.281-.797,2.476-2.008,3.178,1.798.52,3.006,1.939,3.006,3.658,0,2.39-2.077,4.307-5.034,4.307"/>
  <path class="st0" d="M103.93,15.498c-.586,0-1.047-.471-1.047-1.018V.474h2.121v13.193h8.439v1.831h-9.513Z"/>
  <path class="st0" d="M127.91,15.745c-4.336,0-6.951-1.531-6.951-4.623,0-1.468.863-2.865,2.545-3.52-1.353-.813-2.052-1.966-2.052-3.224,0-2.794,2.263-4.125,6.508-4.125,1.422,0,3.428.155,5.11.52l-.237,1.666c-1.775-.273-3.424-.428-5.038-.428-2.756,0-4.221.718-4.221,2.459,0,1.376,1.356,2.459,3.147,2.459h3.635c.511,0,.912.386.912.856s-.395.879-.912.879h-3.918c-2.052,0-3.358.968-3.358,2.463,0,2.186,2.121,2.845,4.781,2.845,1.449,0,3.408-.181,4.992-.54l.303,1.646c-1.518.411-3.5.678-5.252.678"/>
  <path class="st0" d="M8.091,3.296l3.717,8.867-5.614-4.277,1.896-4.59h0ZM14.696,14.207L8.979.902c-.168-.386-.494-.59-.889-.59-.392,0-.744.204-.912.59L.906,15.498h2.146l2.482-6.019,7.412,5.789c.296.234.511.34.794.34.563,0,1.051-.402,1.051-.991,0-.092-.04-.247-.098-.409"/>
</svg>